<mxfile host="app.diagrams.net" modified="2020-11-30T21:51:23.142Z" agent="5.0 (X11)" etag="RcSWwTv6Oj9yjXSoNKCh" version="13.10.4" type="github">
  <diagram id="c_mNzXFygeJ-nYomHA_w" name="Page-1">
    <mxGraphModel dx="868" dy="492" grid="1" gridSize="10" guides="1" tooltips="1" connect="1" arrows="1" fold="1" page="1" pageScale="1" pageWidth="827" pageHeight="1169" math="0" shadow="0">
      <root>
        <mxCell id="0" />
        <mxCell id="1" parent="0" />
        <mxCell id="wda3K9SEMy78l61vOblK-13" style="edgeStyle=orthogonalEdgeStyle;rounded=0;orthogonalLoop=1;jettySize=auto;html=1;exitX=0.5;exitY=1;exitDx=0;exitDy=0;exitPerimeter=0;entryX=0.5;entryY=0;entryDx=0;entryDy=0;" edge="1" parent="1" source="wda3K9SEMy78l61vOblK-1" target="wda3K9SEMy78l61vOblK-4">
          <mxGeometry relative="1" as="geometry" />
        </mxCell>
        <mxCell id="wda3K9SEMy78l61vOblK-17" style="edgeStyle=orthogonalEdgeStyle;rounded=0;orthogonalLoop=1;jettySize=auto;html=1;exitX=1;exitY=0.5;exitDx=0;exitDy=0;exitPerimeter=0;entryX=0;entryY=0.5;entryDx=0;entryDy=0;entryPerimeter=0;dashed=1;endArrow=none;endFill=0;" edge="1" parent="1" source="wda3K9SEMy78l61vOblK-1" target="wda3K9SEMy78l61vOblK-16">
          <mxGeometry relative="1" as="geometry" />
        </mxCell>
        <mxCell id="wda3K9SEMy78l61vOblK-1" value="get_sum_half1" style="strokeWidth=1;html=1;shape=mxgraph.flowchart.terminator;whiteSpace=wrap;" vertex="1" parent="1">
          <mxGeometry x="329" y="40" width="170" height="40" as="geometry" />
        </mxCell>
        <mxCell id="wda3K9SEMy78l61vOblK-10" style="edgeStyle=orthogonalEdgeStyle;rounded=0;orthogonalLoop=1;jettySize=auto;html=1;exitX=1;exitY=0.5;exitDx=0;exitDy=0;entryX=0.5;entryY=0;entryDx=0;entryDy=0;entryPerimeter=0;" edge="1" parent="1" source="wda3K9SEMy78l61vOblK-3" target="wda3K9SEMy78l61vOblK-9">
          <mxGeometry relative="1" as="geometry">
            <mxPoint x="430" y="370" as="targetPoint" />
            <Array as="points">
              <mxPoint x="530" y="215" />
              <mxPoint x="530" y="360" />
              <mxPoint x="425" y="360" />
            </Array>
          </mxGeometry>
        </mxCell>
        <mxCell id="wda3K9SEMy78l61vOblK-11" style="edgeStyle=orthogonalEdgeStyle;rounded=0;orthogonalLoop=1;jettySize=auto;html=1;exitX=0.5;exitY=1;exitDx=0;exitDy=0;entryX=0.5;entryY=0;entryDx=0;entryDy=0;" edge="1" parent="1" source="wda3K9SEMy78l61vOblK-3" target="wda3K9SEMy78l61vOblK-5">
          <mxGeometry relative="1" as="geometry" />
        </mxCell>
        <mxCell id="wda3K9SEMy78l61vOblK-3" value="i = 1000..(num / i &amp;gt; 0),&amp;nbsp; i * 10" style="shape=hexagon;perimeter=hexagonPerimeter2;whiteSpace=wrap;html=1;fixedSize=1;strokeWidth=1;" vertex="1" parent="1">
          <mxGeometry x="329" y="190" width="170" height="50" as="geometry" />
        </mxCell>
        <mxCell id="wda3K9SEMy78l61vOblK-12" style="edgeStyle=orthogonalEdgeStyle;rounded=0;orthogonalLoop=1;jettySize=auto;html=1;exitX=0.5;exitY=1;exitDx=0;exitDy=0;entryX=0.5;entryY=0;entryDx=0;entryDy=0;" edge="1" parent="1" source="wda3K9SEMy78l61vOblK-4" target="wda3K9SEMy78l61vOblK-3">
          <mxGeometry relative="1" as="geometry" />
        </mxCell>
        <mxCell id="wda3K9SEMy78l61vOblK-4" value="sum_half1" style="shape=parallelogram;perimeter=parallelogramPerimeter;whiteSpace=wrap;html=1;fixedSize=1;strokeWidth=1;" vertex="1" parent="1">
          <mxGeometry x="329" y="120" width="170" height="40" as="geometry" />
        </mxCell>
        <mxCell id="wda3K9SEMy78l61vOblK-7" style="edgeStyle=orthogonalEdgeStyle;rounded=0;orthogonalLoop=1;jettySize=auto;html=1;entryX=0;entryY=0.5;entryDx=0;entryDy=0;" edge="1" parent="1" source="wda3K9SEMy78l61vOblK-5" target="wda3K9SEMy78l61vOblK-3">
          <mxGeometry relative="1" as="geometry">
            <Array as="points">
              <mxPoint x="414" y="360" />
              <mxPoint x="309" y="360" />
              <mxPoint x="309" y="215" />
            </Array>
          </mxGeometry>
        </mxCell>
        <mxCell id="wda3K9SEMy78l61vOblK-5" value="sum_half1 += num / i&amp;nbsp; % 10;" style="rounded=0;whiteSpace=wrap;html=1;strokeWidth=1;" vertex="1" parent="1">
          <mxGeometry x="329" y="270" width="170" height="40" as="geometry" />
        </mxCell>
        <mxCell id="wda3K9SEMy78l61vOblK-15" style="edgeStyle=orthogonalEdgeStyle;rounded=0;orthogonalLoop=1;jettySize=auto;html=1;entryX=0;entryY=0.5;entryDx=0;entryDy=0;entryPerimeter=0;dashed=1;endArrow=none;endFill=0;" edge="1" parent="1" source="wda3K9SEMy78l61vOblK-9" target="wda3K9SEMy78l61vOblK-14">
          <mxGeometry relative="1" as="geometry" />
        </mxCell>
        <mxCell id="wda3K9SEMy78l61vOblK-9" value="Кінець" style="strokeWidth=1;html=1;shape=mxgraph.flowchart.terminator;whiteSpace=wrap;" vertex="1" parent="1">
          <mxGeometry x="340" y="390" width="170" height="40" as="geometry" />
        </mxCell>
        <mxCell id="wda3K9SEMy78l61vOblK-14" value="&lt;div&gt;Функція &lt;br&gt;&lt;/div&gt;&lt;div&gt;повертає &lt;br&gt;&lt;/div&gt;&lt;div&gt;sum_half1&lt;/div&gt;" style="strokeWidth=1;html=1;shape=mxgraph.flowchart.annotation_1;align=left;pointerEvents=1;" vertex="1" parent="1">
          <mxGeometry x="560" y="360" width="40" height="100" as="geometry" />
        </mxCell>
        <mxCell id="wda3K9SEMy78l61vOblK-16" value="&lt;div&gt;Функція&lt;/div&gt;&lt;div&gt; приймає&lt;/div&gt;&lt;div&gt; задане число&lt;/div&gt;" style="strokeWidth=1;html=1;shape=mxgraph.flowchart.annotation_1;align=left;pointerEvents=1;" vertex="1" parent="1">
          <mxGeometry x="540" y="10" width="50" height="100" as="geometry" />
        </mxCell>
      </root>
    </mxGraphModel>
  </diagram>
</mxfile>
